<?xml version="1.0" encoding="iso-8859-1"?>
<!-- Generator: Adobe Illustrator 19.0.0, SVG Export Plug-In . SVG Version: 6.00 Build 0)  -->
<svg version="1.1" id="Capa_1" xmlns="http://www.w3.org/2000/svg" xmlns:xlink="http://www.w3.org/1999/xlink" x="0px" y="0px"
	 viewBox="0 0 512.002 512.002" style="enable-background:new 0 0 512.002 512.002;" xml:space="preserve">
<g>
	<g>
		<path d="M153.072,285.692c-1.86-1.86-4.44-2.93-7.07-2.93c-2.64,0-5.21,1.07-7.07,2.93s-2.93,4.43-2.93,7.07
			c0,2.63,1.07,5.21,2.93,7.07s4.44,2.93,7.07,2.93s5.21-1.07,7.07-2.93s2.93-4.44,2.93-7.07
			C156.002,290.122,154.932,287.552,153.072,285.692z"/>
	</g>
</g>
<g>
	<g>
		<path d="M512.002,295.004c0-22.474-16.205-41.223-37.54-45.207c5.433-7.552,8.645-16.803,8.645-26.795c0-25.364-20.635-46-46-46
			H324.214l16.655-49.449c6.427-19.082,4.891-39.45-4.325-57.352c-9.215-17.902-24.899-30.987-44.164-36.843l-19.483-5.923
			c-5.09-1.548-10.502,1.161-12.312,6.165l-30.614,84.611c-8.78,24.266-26.096,44.427-48.76,56.768l-31.443,17.122
			c-6.325-9.115-16.858-15.099-28.768-15.099H35c-19.299,0-35,15.701-35,35V450c0,19.299,15.701,35,35,35h86
			c13.215,0,24.74-7.364,30.695-18.202l16.56,6.495c19.812,7.77,40.647,11.709,61.927,11.709h181.821c25.364,0,46-20.635,46-46
			c0-10.055-3.252-19.36-8.747-26.938c20.937-4.3,36.732-22.871,36.732-45.061c0-10.227-3.358-19.682-9.025-27.329
			C497.05,334.744,512.002,316.592,512.002,295.004z M466.002,321.004h-102c-5.523,0-10,4.477-10,10s4.477,10,10,10h75.985
			c14.336,0,26,11.663,26,26c0,14.337-11.664,26-26,26h-75.985c-5.523,0-10,4.477-10,10s4.477,10,10,10h48c14.336,0,26,11.664,26,26
			s-11.664,26-26,26h-181.82c-18.771,0-37.149-3.475-54.625-10.329L156,447.003V326.251c0-5.523-4.477-10-10-10s-10,4.477-10,10V450
			c0,8.271-6.729,15-15,15H35c-8.271,0-15-6.729-15-15V212.002c0-8.271,6.729-15,15-15h5v119.899c0,5.523,4.477,10,10,10
			s10-4.477,10-10V197.002h61c8.271,0,15,6.729,15,15v39.751c0,5.523,4.477,10,10,10s10-4.477,10-10v-39.751
			c0-0.173-0.011-0.343-0.013-0.515l34.789-18.944c26.96-14.68,47.559-38.662,58.002-67.528l27.384-75.684l10.401,3.162
			c14.045,4.27,25.48,13.81,32.199,26.862s7.839,27.902,3.153,41.814l-21.099,62.641c-1.028,3.051-0.523,6.411,1.355,9.026
			c1.878,2.615,4.902,4.166,8.122,4.166h126.814c14.336,0,26,11.664,26,26s-11.664,26-26,26h-73.105c-5.523,0-10,4.477-10,10
			c0,5.523,4.477,10,10,10h37.153c0.016,0,0.032,0.002,0.048,0.002h64.799c14.336,0,26,11.664,26,26
			S480.338,321.004,466.002,321.004z"/>
	</g>
</g>
<g>
	<g>
		<path d="M78,380.086c-16.542,0-30,13.458-30,30s13.458,30,30,30s30-13.458,30-30S94.542,380.086,78,380.086z M78,420.086
			c-5.514,0-10-4.486-10-10c0-5.514,4.486-10,10-10s10,4.486,10,10C88,415.6,83.514,420.086,78,420.086z"/>
	</g>
</g>
<g>
	<g>
		<path d="M50,342.862c-5.523,0-10,4.477-10,10v0.156c0,5.523,4.477,10,10,10s10-4.477,10-10v-0.156
			C60,347.339,55.523,342.862,50,342.862z"/>
	</g>
</g>
<g>
</g>
<g>
</g>
<g>
</g>
<g>
</g>
<g>
</g>
<g>
</g>
<g>
</g>
<g>
</g>
<g>
</g>
<g>
</g>
<g>
</g>
<g>
</g>
<g>
</g>
<g>
</g>
<g>
</g>
</svg>
